<svg id="visual" viewBox="0 0 900 600" width="900" height="600" xmlns="http://www.w3.org/2000/svg" xmlns:xlink="http://www.w3.org/1999/xlink" version="1.1"><rect x="0" y="0" width="900" height="600" fill="#001220"></rect><defs><linearGradient id="grad1_0" x1="33.3%" y1="0%" x2="100%" y2="100%"><stop offset="20%" stop-color="#56b7ff" stop-opacity="1"></stop><stop offset="80%" stop-color="#56b7ff" stop-opacity="1"></stop></linearGradient></defs><defs><linearGradient id="grad1_1" x1="33.3%" y1="0%" x2="100%" y2="100%"><stop offset="20%" stop-color="#56b7ff" stop-opacity="1"></stop><stop offset="80%" stop-color="#001220" stop-opacity="1"></stop></linearGradient></defs><defs><linearGradient id="grad2_0" x1="0%" y1="0%" x2="66.7%" y2="100%"><stop offset="20%" stop-color="#56b7ff" stop-opacity="1"></stop><stop offset="80%" stop-color="#56b7ff" stop-opacity="1"></stop></linearGradient></defs><defs><linearGradient id="grad2_1" x1="0%" y1="0%" x2="66.7%" y2="100%"><stop offset="20%" stop-color="#001220" stop-opacity="1"></stop><stop offset="80%" stop-color="#56b7ff" stop-opacity="1"></stop></linearGradient></defs><g transform="translate(900, 0)"><path d="M0 324.5C-32.3 292.4 -64.6 260.4 -101.8 245.8C-139 231.1 -181.1 234 -217.1 217.1C-253.1 200.2 -282.9 163.6 -299.8 124.2C-316.7 84.7 -320.6 42.4 -324.5 0L0 0Z" fill="#295e87"></path><path d="M0 162.2C-16.1 146.2 -32.3 130.2 -50.9 122.9C-69.5 115.6 -90.6 117 -108.5 108.5C-126.5 100.1 -141.5 81.8 -149.9 62.1C-158.3 42.4 -160.3 21.2 -162.2 0L0 0Z" fill="#56b7ff"></path></g><g transform="translate(0, 600)"><path d="M0 -324.5C42 -319.7 84.1 -314.9 124.2 -299.8C164.3 -284.7 202.5 -259.4 226.3 -226.3C250.1 -193.2 259.5 -152.3 273.5 -113.3C287.4 -74.3 306 -37.1 324.5 0L0 0Z" fill="#295e87"></path><path d="M0 -162.2C21 -159.8 42 -157.4 62.1 -149.9C82.1 -142.4 101.2 -129.7 113.1 -113.1C125 -96.6 129.7 -76.1 136.7 -56.6C143.7 -37.1 153 -18.6 162.2 0L0 0Z" fill="#56b7ff"></path></g></svg>