<svg id="visual" viewBox="0 0 900 600" width="900" height="600" xmlns="http://www.w3.org/2000/svg">

    <rect x="0" y="0" width="900" height="600" fill="none"></rect>
    <g transform="translate(900, 600)">
        <path d="M-432.7 0C-402.7 -45.2 -372.7 -90.5 -357.5 -148.1C-342.4 -205.7 -342 -275.8 -305.9 -305.9C-269.9 -336.1 -198.1 -326.4 -141.2 -340.9C-84.3 -355.4 -42.1 -394 0 -432.7L0 0Z" fill="#295e87"></path>
        <path d="M-216.3 0C-201.3 -22.6 -186.4 -45.2 -178.8 -74C-171.2 -102.9 -171 -137.9 -153 -153C-134.9 -168.1 -99.1 -163.2 -70.6 -170.5C-42.1 -177.7 -21.1 -197 0 -216.3L0 0Z" fill="#56b7ff"></path>
    </g>
    <g transform="translate(0, 0)">
        <path d="M432.7 0C406.3 47 379.9 94.1 364 150.8C348.1 207.5 342.6 273.9 305.9 305.9C269.3 338 201.6 335.7 145.4 351.1C89.2 366.5 44.6 399.6 0 432.7L0 0Z" fill="#295e87"></path>
        <path d="M216.3 0C203.2 23.5 190 47 182 75.4C174 103.7 171.3 136.9 153 153C134.7 169 100.8 167.8 72.7 175.5C44.6 183.2 22.3 199.8 0 216.3L0 0Z" fill="#56b7ff"></path>
    </g>
</svg>
