<svg id="visual" viewBox="0 0 900 600" width="900" height="600" xmlns="http://www.w3.org/2000/svg" xmlns:xlink="http://www.w3.org/1999/xlink" version="1.1">
    <rect x="0" y="0" width="100%" height="100%" fill="none"></rect> 
    <defs>
        <linearGradient id="grad1_0" x1="33.3%" y1="100%" x2="100%" y2="0%">
            <stop offset="20%" stop-color="#000000" stop-opacity="1"></stop>
            <stop offset="80%" stop-color="#000000" stop-opacity="1"></stop>
        </linearGradient>
    </defs>
    <defs>
        <linearGradient id="grad2_0" x1="0%" y1="100%" x2="66.7%" y2="0%">
            <stop offset="20%" stop-color="#000000" stop-opacity="1"></stop>
            <stop offset="80%" stop-color="#000000" stop-opacity="1"></stop>
        </linearGradient>
    </defs>
    <g transform="translate(900, 600)">
        <path d="M-297.5 0C-254.1 -31.2 -210.8 -62.4 -191.4 -110.5C-172 -158.6 -176.6 -223.6 -148.7 -257.6C-120.8 -291.6 -60.4 -294.5 0 -297.5L0 0Z" fill="#1c5fbb"></path>
    </g>
    <g transform="translate(0, 0)">
        <path d="M297.5 0C254.6 31.5 211.7 62.9 192.3 111C172.8 159.1 176.9 223.8 148.7 257.6C120.6 291.5 60.3 294.5 0 297.5L0 0Z" fill="#1c5fbb"></path>
    </g>
</svg>