<svg width="1342" height="697" viewBox="0 0 1342 697" fill="none" xmlns="http://www.w3.org/2000/svg">
<g clip-path="url(#clip0_399_94)">
<rect width="1342" height="697" fill="#1B1E33"/>
<g filter="url(#filter0_d_399_94)">
<path d="M0 0H671V697H0V0Z" fill="#141414"/>
</g>
<g filter="url(#filter1_d_399_94)">
<path d="M671 -8H1342V689H671V-8Z" fill="black" fill-opacity="0.35" shape-rendering="crispEdges"/>
</g>
<g filter="url(#filter2_d_399_94)">
<path fill-rule="evenodd" clip-rule="evenodd" d="M2070.96 634.59C2147.62 728.587 2184.48 862.579 2136.87 974.113C2091.48 1080.45 1966.57 1117.38 1853.87 1143.16C1759.23 1164.81 1665.64 1147.54 1580.16 1101.47C1484.24 1049.77 1397.48 982.328 1363.42 878.817C1316.88 737.366 1251.69 548.14 1367.22 454.255C1482.36 360.683 1638.07 501.964 1781.81 538.8C1885.29 565.316 2003.43 551.8 2070.96 634.59Z" fill="url(#paint0_linear_399_94)" fill-opacity="0.02" shape-rendering="crispEdges"/>
</g>
<g filter="url(#filter3_d_399_94)">
<path fill-rule="evenodd" clip-rule="evenodd" d="M1322.84 1260.78C1252.47 1330.48 1137.98 1364.49 1035.66 1365.73C926.758 1367.05 797.02 1346.6 746.116 1267.77C692.702 1185.07 800.883 1072.68 784.421 976.716C770.164 893.61 623.89 842.343 658.992 759.913C695.188 674.915 836.983 667.718 932.599 628.75C996.065 602.885 1066.16 601.322 1126.33 569.453C1214.21 522.903 1262.6 414.477 1361.66 401.486C1456.07 389.105 1556.17 438.769 1599.5 507.402C1643.3 576.769 1535.62 681.952 1581.74 750.07C1655.94 859.662 2004.78 864.482 1920.54 981.548C1822.75 1117.44 1557.02 934.493 1394.33 1010.5C1303.47 1052.95 1391.2 1193.08 1322.84 1260.78Z" fill="url(#paint1_linear_399_94)"/>
</g>
<g filter="url(#filter4_d_399_94)">
<path fill-rule="evenodd" clip-rule="evenodd" d="M896.29 -661.677C981.783 -711.694 1101.13 -716.179 1200.55 -691.944C1306.36 -666.153 1426.94 -614.088 1456.65 -525.088C1487.83 -431.699 1355.11 -349.731 1347.2 -252.687C1340.35 -168.646 1469.29 -82.6267 1414.8 -11.5096C1358.61 61.8223 1219.47 33.5454 1117.17 47.5214C1049.27 56.7982 980.988 40.8879 914.787 56.8001C818.09 80.0423 744.266 173.036 645.084 160.994C550.56 149.517 465.945 76.5288 441.035 -0.721276C415.859 -78.7972 546.309 -153.911 518.569 -231.355C473.939 -355.953 137.249 -447.337 247.945 -539.787C376.44 -647.102 588.351 -403.847 764.83 -437.025C863.396 -455.555 813.248 -613.093 896.29 -661.677Z" fill="url(#paint2_linear_399_94)"/>
</g>
<g filter="url(#filter5_d_399_94)">
<path fill-rule="evenodd" clip-rule="evenodd" d="M-48.4193 400.564C-3.86054 308.449 95.3612 231.854 193.871 190.302C298.705 146.081 431.023 113.73 506.786 166.372C586.285 221.609 519.556 368.05 567.797 450.113C609.574 521.181 768.256 510.735 762.087 600.67C755.726 693.406 621.066 756.04 541.755 829.759C489.11 878.692 421.873 907.811 374.44 960.982C305.157 1038.65 294.898 1157.82 203.503 1208.93C116.402 1257.63 2.8963 1251.33 -62.1136 1205.1C-127.819 1158.37 -59.1453 1018.78 -126.679 974.124C-235.331 902.283 -574.2 1035.58 -532.193 894.279C-483.431 730.257 -164.909 794.162 -33.227 659.773C40.3197 584.715 -91.7007 490.038 -48.4193 400.564Z" fill="url(#paint3_linear_399_94)"/>
</g>
</g>
<defs>
<filter id="filter0_d_399_94" x="-5" y="-4" width="681" height="707" filterUnits="userSpaceOnUse" color-interpolation-filters="sRGB">
<feFlood flood-opacity="0" result="BackgroundImageFix"/>
<feColorMatrix in="SourceAlpha" type="matrix" values="0 0 0 0 0 0 0 0 0 0 0 0 0 0 0 0 0 0 127 0" result="hardAlpha"/>
<feMorphology radius="1" operator="dilate" in="SourceAlpha" result="effect1_dropShadow_399_94"/>
<feOffset dy="1"/>
<feGaussianBlur stdDeviation="2"/>
<feComposite in2="hardAlpha" operator="out"/>
<feColorMatrix type="matrix" values="0 0 0 0 0 0 0 0 0 0 0 0 0 0 0 0 0 0 1 0"/>
<feBlend mode="normal" in2="BackgroundImageFix" result="effect1_dropShadow_399_94"/>
<feBlend mode="normal" in="SourceGraphic" in2="effect1_dropShadow_399_94" result="shape"/>
</filter>
<filter id="filter1_d_399_94" x="666" y="-12" width="681" height="707" filterUnits="userSpaceOnUse" color-interpolation-filters="sRGB">
<feFlood flood-opacity="0" result="BackgroundImageFix"/>
<feColorMatrix in="SourceAlpha" type="matrix" values="0 0 0 0 0 0 0 0 0 0 0 0 0 0 0 0 0 0 127 0" result="hardAlpha"/>
<feMorphology radius="1" operator="dilate" in="SourceAlpha" result="effect1_dropShadow_399_94"/>
<feOffset dy="1"/>
<feGaussianBlur stdDeviation="2"/>
<feComposite in2="hardAlpha" operator="out"/>
<feColorMatrix type="matrix" values="0 0 0 0 0 0 0 0 0 0 0 0 0 0 0 0 0 0 1 0"/>
<feBlend mode="normal" in2="BackgroundImageFix" result="effect1_dropShadow_399_94"/>
<feBlend mode="normal" in="SourceGraphic" in2="effect1_dropShadow_399_94" result="shape"/>
</filter>
<filter id="filter2_d_399_94" x="1302.51" y="422.775" width="863.618" height="737.648" filterUnits="userSpaceOnUse" color-interpolation-filters="sRGB">
<feFlood flood-opacity="0" result="BackgroundImageFix"/>
<feColorMatrix in="SourceAlpha" type="matrix" values="0 0 0 0 0 0 0 0 0 0 0 0 0 0 0 0 0 0 127 0" result="hardAlpha"/>
<feOffset dx="4" dy="4"/>
<feGaussianBlur stdDeviation="2"/>
<feComposite in2="hardAlpha" operator="out"/>
<feColorMatrix type="matrix" values="0 0 0 0 0 0 0 0 0 0 0 0 0 0 0 0 0 0 0.3 0"/>
<feBlend mode="normal" in2="BackgroundImageFix" result="effect1_dropShadow_399_94"/>
<feBlend mode="normal" in="SourceGraphic" in2="effect1_dropShadow_399_94" result="shape"/>
</filter>
<filter id="filter3_d_399_94" x="653.57" y="399.588" width="1288" height="974.202" filterUnits="userSpaceOnUse" color-interpolation-filters="sRGB">
<feFlood flood-opacity="0" result="BackgroundImageFix"/>
<feColorMatrix in="SourceAlpha" type="matrix" values="0 0 0 0 0 0 0 0 0 0 0 0 0 0 0 0 0 0 127 0" result="hardAlpha"/>
<feOffset dx="4" dy="4"/>
<feGaussianBlur stdDeviation="2"/>
<feComposite in2="hardAlpha" operator="out"/>
<feColorMatrix type="matrix" values="0 0 0 0 0 0 0 0 0 0 0 0 0 0 0 0 0 0 0.3 0"/>
<feBlend mode="normal" in2="BackgroundImageFix" result="effect1_dropShadow_399_94"/>
<feBlend mode="normal" in="SourceGraphic" in2="effect1_dropShadow_399_94" result="shape"/>
</filter>
<filter id="filter4_d_399_94" x="225.73" y="-706.208" width="1243.66" height="876.273" filterUnits="userSpaceOnUse" color-interpolation-filters="sRGB">
<feFlood flood-opacity="0" result="BackgroundImageFix"/>
<feColorMatrix in="SourceAlpha" type="matrix" values="0 0 0 0 0 0 0 0 0 0 0 0 0 0 0 0 0 0 127 0" result="hardAlpha"/>
<feOffset dx="4" dy="4"/>
<feGaussianBlur stdDeviation="2"/>
<feComposite in2="hardAlpha" operator="out"/>
<feColorMatrix type="matrix" values="0 0 0 0 0 0 0 0 0 0 0 0 0 0 0 0 0 0 0.3 0"/>
<feBlend mode="normal" in2="BackgroundImageFix" result="effect1_dropShadow_399_94"/>
<feBlend mode="normal" in="SourceGraphic" in2="effect1_dropShadow_399_94" result="shape"/>
</filter>
<filter id="filter5_d_399_94" x="-535.777" y="139.141" width="1306.04" height="1111.57" filterUnits="userSpaceOnUse" color-interpolation-filters="sRGB">
<feFlood flood-opacity="0" result="BackgroundImageFix"/>
<feColorMatrix in="SourceAlpha" type="matrix" values="0 0 0 0 0 0 0 0 0 0 0 0 0 0 0 0 0 0 127 0" result="hardAlpha"/>
<feOffset dx="4" dy="4"/>
<feGaussianBlur stdDeviation="2"/>
<feComposite in2="hardAlpha" operator="out"/>
<feColorMatrix type="matrix" values="0 0 0 0 0 0 0 0 0 0 0 0 0 0 0 0 0 0 0.3 0"/>
<feBlend mode="normal" in2="BackgroundImageFix" result="effect1_dropShadow_399_94"/>
<feBlend mode="normal" in="SourceGraphic" in2="effect1_dropShadow_399_94" result="shape"/>
</filter>
<linearGradient id="paint0_linear_399_94" x1="1480.24" y1="382.281" x2="1950.14" y2="1134.58" gradientUnits="userSpaceOnUse">
<stop stop-color="#57A1F8"/>
<stop offset="1" stop-color="#1E233D"/>
</linearGradient>
<linearGradient id="paint1_linear_399_94" x1="1865.32" y1="702.371" x2="677.221" y2="1040.1" gradientUnits="userSpaceOnUse">
<stop stop-color="#1D1D35"/>
<stop offset="0.0001" stop-color="#1D1D35"/>
<stop offset="0.94" stop-color="#1D1D35"/>
<stop offset="1"/>
</linearGradient>
<linearGradient id="paint2_linear_399_94" x1="232.033" y1="-255.647" x2="1466.79" y2="-287.434" gradientUnits="userSpaceOnUse">
<stop stop-color="#1D1D35"/>
<stop offset="0.0001" stop-color="#1D1D35"/>
<stop offset="0.94" stop-color="#1D1D35"/>
<stop offset="1"/>
</linearGradient>
<linearGradient id="paint3_linear_399_94" x1="-384.768" y1="1130.12" x2="650.083" y2="349.285" gradientUnits="userSpaceOnUse">
<stop stop-color="#292929"/>
<stop offset="1" stop-color="#141414"/>
</linearGradient>
<clipPath id="clip0_399_94">
<rect width="1342" height="697" fill="white"/>
</clipPath>
</defs>
</svg>
