<svg id="visual" viewBox="0 0 900 600" width="900" height="600" xmlns="http://www.w3.org/2000/svg" xmlns:xlink="http://www.w3.org/1999/xlink" version="1.1"><path d="M187 0L222.2 25C257.3 50 327.7 100 352.8 150C378 200 358 250 321 300C284 350 230 400 242.3 450C254.7 500 333.3 550 372.7 575L412 600L0 600L0 575C0 550 0 500 0 450C0 400 0 350 0 300C0 250 0 200 0 150C0 100 0 50 0 25L0 0Z" fill="#0b142a"></path><path d="M151 0L142 25C133 50 115 100 130.7 150C146.3 200 195.7 250 249.8 300C304 350 363 400 368 450C373 500 324 550 299.5 575L275 600L0 600L0 575C0 550 0 500 0 450C0 400 0 350 0 300C0 250 0 200 0 150C0 100 0 50 0 25L0 0Z" fill="#0a2b44"></path><path d="M157 0L145.5 25C134 50 111 100 116.7 150C122.3 200 156.7 250 182 300C207.3 350 223.7 400 207.5 450C191.3 500 142.7 550 118.3 575L94 600L0 600L0 575C0 550 0 500 0 450C0 400 0 350 0 300C0 250 0 200 0 150C0 100 0 50 0 25L0 0Z" fill="#00435c"></path></svg>